# xmcd
#
# Track frame offsets: 
#        150
#        15005
#        26102
#        47607
#        74457
#        102380
#        129197
#        148100
#        165707
#        178602
#        201205
#        222647
#        240872
#
# Disc length: 3371 seconds
#
# Revision: 3
# Processed by: cddbd v1.5.2PL0 Copyright (c) Steve Scherf et al.
# Submitted via: ExactAudioCopy v1.0b3
#
DISCID=b10d290d
DTITLE=五十嵐はるみ - A Song for You
DYEAR=2001
DGENRE=Jazz
TTITLE0=ソー・ナイス
TTITLE1=グッディ・グッディ
TTITLE2=コーリング・ユー
TTITLE3=ロング・バージョン
TTITLE4=アルフィー
TTITLE5=ソング・フォー・ユー
TTITLE6=黄昏のビギン
TTITLE7=メイキン・ウーピー
TTITLE8=ハニー・パイ
TTITLE9=恋におちて
TTITLE10=ムーンダンス
TTITLE11=アズ・タイム・ゴーズ・バイ
TTITLE12=ドリーム・ア・リトル・ドリーム・オブ・ミー
EXTD=YEAR: 2001
EXTT0=
EXTT1=
EXTT2=
EXTT3=
EXTT4=
EXTT5=
EXTT6=
EXTT7=
EXTT8=
EXTT9=
EXTT10=
EXTT11=
EXTT12=
PLAYORDER=
